<svg xmlns="http://www.w3.org/2000/svg" viewBox="0 0 200 240" width="200" height="240">
  <!-- Testa principale -->
  <ellipse cx="100" cy="90" rx="75" ry="85" fill="#f5f5f5" stroke="#2d3748" stroke-width="3"/>
  
  <!-- Ombreggiature laterali -->
  <path d="M 30 60 Q 25 90 30 120 Q 35 140 50 150 L 50 130 Q 40 110 35 90 Q 30 70 30 60 Z" fill="#a0d4a0" opacity="0.7"/>
  <path d="M 170 60 Q 175 90 170 120 Q 165 140 150 150 L 150 130 Q 160 110 165 90 Q 170 70 170 60 Z" fill="#a0d4a0" opacity="0.7"/>
  
  <!-- Orecchie/sensori laterali -->
  <rect x="20" y="80" width="15" height="20" rx="3" fill="#d1d5db" stroke="#2d3748" stroke-width="2"/>
  <rect x="165" y="80" width="15" height="20" rx="3" fill="#d1d5db" stroke="#2d3748" stroke-width="2"/>
  
  <!-- Zona occhi verde -->
  <path d="M 40 50 Q 100 35 160 50 Q 165 65 160 80 L 140 85 Q 100 90 60 85 L 40 80 Q 35 65 40 50 Z" fill="#7dd87d" opacity="0.8"/>
  
  <!-- Occhi -->
  <circle cx="70" cy="65" r="18" fill="white" stroke="#2d3748" stroke-width="2"/>
  <circle cx="130" cy="65" r="18" fill="white" stroke="#2d3748" stroke-width="2"/>
  
  <!-- Pupille -->
  <circle cx="70" cy="65" r="8" fill="#2d3748"/>
  <circle cx="130" cy="65" r="8" fill="#2d3748"/>
  
  <!-- Riflessi negli occhi -->
  <circle cx="72" cy="62" r="3" fill="white"/>
  <circle cx="132" cy="62" r="3" fill="white"/>
  
  <!-- Naso/sensore -->
  <ellipse cx="100" cy="100" rx="3" ry="6" fill="#2d3748"/>
  
  <!-- Bocca -->
  <rect x="95" y="115" width="10" height="3" rx="1" fill="#2d3748"/>
  
  <!-- Collo -->
  <rect x="85" y="170" width="30" height="25" fill="#d1d5db" stroke="#2d3748" stroke-width="2"/>
  
  <!-- Ombra verde sul collo -->
  <path d="M 85 175 Q 100 180 115 175 L 115 190 Q 100 195 85 190 Z" fill="#a0d4a0" opacity="0.6"/>
  
  <!-- Dettagli tecnologici -->
  <circle cx="50" cy="45" r="3" fill="#7dd87d"/>
  <circle cx="150" cy="45" r="3" fill="#7dd87d"/>
  <rect x="95" y="35" width="10" height="4" rx="2" fill="#7dd87d"/>
</svg>
